<?xml version="1.0" encoding="iso-8859-1"?>
<!-- Generator: Adobe Illustrator 19.0.0, SVG Export Plug-In . SVG Version: 6.00 Build 0)  -->
<svg version="1.1" id="Layer_1" xmlns="http://www.w3.org/2000/svg" xmlns:xlink="http://www.w3.org/1999/xlink" x="0px" y="0px"
	 viewBox="0 0 512 512" style="enable-background:new 0 0 512 512;" xml:space="preserve">
<g>
	<g>
		<path d="M440.082,249.209L220.747,3.409C218.812,1.24,216.044,0,213.137,0H79.527c-4.021,0-7.666,2.361-9.308,6.03
			c-1.643,3.669-0.979,7.96,1.698,10.96L285.192,256L71.918,495.01c-2.677,3-3.341,7.291-1.698,10.96
			c1.642,3.669,5.288,6.03,9.308,6.03h133.61c2.906,0,5.675-1.24,7.61-3.409l219.335-245.801
			C443.535,258.921,443.535,253.079,440.082,249.209z M208.568,491.602H102.297l204.175-228.811c3.453-3.87,3.453-9.712,0-13.581
			L102.297,20.398h106.271L418.802,256L208.568,491.602z"/>
	</g>
</g>
<g>
	<g>
		<path d="M245.948,81.942l-6.37-7.139c-3.751-4.201-10.195-4.57-14.401-0.82c-4.202,3.751-4.57,10.198-0.82,14.401l6.37,7.139
			c2.016,2.258,4.809,3.409,7.615,3.409c2.416,0,4.842-0.854,6.787-2.589C249.33,92.592,249.698,86.146,245.948,81.942z"/>
	</g>
</g>
<g>
	<g>
		<path d="M395.204,249.209L269.61,108.46c-3.749-4.201-10.194-4.571-14.4-0.819c-4.202,3.75-4.57,10.197-0.819,14.4
			l125.594,140.749c2.015,2.258,4.808,3.409,7.614,3.409c2.415,0,4.842-0.854,6.787-2.59
			C398.587,259.859,398.955,253.412,395.204,249.209z"/>
	</g>
</g>
<g>
</g>
<g>
</g>
<g>
</g>
<g>
</g>
<g>
</g>
<g>
</g>
<g>
</g>
<g>
</g>
<g>
</g>
<g>
</g>
<g>
</g>
<g>
</g>
<g>
</g>
<g>
</g>
<g>
</g>
</svg>
